<?xml version="1.0" encoding="UTF-8"?>
<!DOCTYPE svg PUBLIC "-//W3C//DTD SVG 1.1//EN" "http://www.w3.org/Graphics/SVG/1.1/DTD/svg11.dtd">
<svg version="1.2" width="66mm" height="66mm" viewBox="0 0 6600 6600" preserveAspectRatio="xMidYMid" fill-rule="evenodd" stroke-width="28.222" stroke-linejoin="round" xmlns="http://www.w3.org/2000/svg" xmlns:ooo="http://xml.openoffice.org/svg/export" xmlns:xlink="http://www.w3.org/1999/xlink" xmlns:presentation="http://sun.com/xmlns/staroffice/presentation" xmlns:smil="http://www.w3.org/2001/SMIL20/" xmlns:anim="urn:oasis:names:tc:opendocument:xmlns:animation:1.0" xml:space="preserve">
 <defs class="ClipPathGroup">
  <clipPath id="presentation_clip_path" clipPathUnits="userSpaceOnUse">
   <rect x="0" y="0" width="6600" height="6600"/>
  </clipPath>
  <clipPath id="presentation_clip_path_shrink" clipPathUnits="userSpaceOnUse">
   <rect x="6" y="6" width="6587" height="6587"/>
  </clipPath>
 </defs>
 <defs class="TextShapeIndex">
  <g ooo:slide="id1" ooo:id-list="id3 id4 id5 id6 id7 id8 id9 id10 id11 id12 id13 id14 id15 id16 id17"/>
 </defs>
 <defs class="EmbeddedBulletChars">
  <g id="bullet-char-template-57356" transform="scale(0.00048828125,-0.00048828125)">
   <path d="M 580,1141 L 1163,571 580,0 -4,571 580,1141 Z"/>
  </g>
  <g id="bullet-char-template-57354" transform="scale(0.00048828125,-0.00048828125)">
   <path d="M 8,1128 L 1137,1128 1137,0 8,0 8,1128 Z"/>
  </g>
  <g id="bullet-char-template-10146" transform="scale(0.00048828125,-0.00048828125)">
   <path d="M 174,0 L 602,739 174,1481 1456,739 174,0 Z M 1358,739 L 309,1346 659,739 1358,739 Z"/>
  </g>
  <g id="bullet-char-template-10132" transform="scale(0.00048828125,-0.00048828125)">
   <path d="M 2015,739 L 1276,0 717,0 1260,543 174,543 174,936 1260,936 717,1481 1274,1481 2015,739 Z"/>
  </g>
  <g id="bullet-char-template-10007" transform="scale(0.00048828125,-0.00048828125)">
   <path d="M 0,-2 C -7,14 -16,27 -25,37 L 356,567 C 262,823 215,952 215,954 215,979 228,992 255,992 264,992 276,990 289,987 310,991 331,999 354,1012 L 381,999 492,748 772,1049 836,1024 860,1049 C 881,1039 901,1025 922,1006 886,937 835,863 770,784 769,783 710,716 594,584 L 774,223 C 774,196 753,168 711,139 L 727,119 C 717,90 699,76 672,76 641,76 570,178 457,381 L 164,-76 C 142,-110 111,-127 72,-127 30,-127 9,-110 8,-76 1,-67 -2,-52 -2,-32 -2,-23 -1,-13 0,-2 Z"/>
  </g>
  <g id="bullet-char-template-10004" transform="scale(0.00048828125,-0.00048828125)">
   <path d="M 285,-33 C 182,-33 111,30 74,156 52,228 41,333 41,471 41,549 55,616 82,672 116,743 169,778 240,778 293,778 328,747 346,684 L 369,508 C 377,444 397,411 428,410 L 1163,1116 C 1174,1127 1196,1133 1229,1133 1271,1133 1292,1118 1292,1087 L 1292,965 C 1292,929 1282,901 1262,881 L 442,47 C 390,-6 338,-33 285,-33 Z"/>
  </g>
  <g id="bullet-char-template-9679" transform="scale(0.00048828125,-0.00048828125)">
   <path d="M 813,0 C 632,0 489,54 383,161 276,268 223,411 223,592 223,773 276,916 383,1023 489,1130 632,1184 813,1184 992,1184 1136,1130 1245,1023 1353,916 1407,772 1407,592 1407,412 1353,268 1245,161 1136,54 992,0 813,0 Z"/>
  </g>
  <g id="bullet-char-template-8226" transform="scale(0.00048828125,-0.00048828125)">
   <path d="M 346,457 C 273,457 209,483 155,535 101,586 74,649 74,723 74,796 101,859 155,911 209,963 273,989 346,989 419,989 480,963 531,910 582,859 608,796 608,723 608,648 583,586 532,535 482,483 420,457 346,457 Z"/>
  </g>
  <g id="bullet-char-template-8211" transform="scale(0.00048828125,-0.00048828125)">
   <path d="M -4,459 L 1135,459 1135,606 -4,606 -4,459 Z"/>
  </g>
  <g id="bullet-char-template-61548" transform="scale(0.00048828125,-0.00048828125)">
   <path d="M 173,740 C 173,903 231,1043 346,1159 462,1274 601,1332 765,1332 928,1332 1067,1274 1183,1159 1299,1043 1357,903 1357,740 1357,577 1299,437 1183,322 1067,206 928,148 765,148 601,148 462,206 346,322 231,437 173,577 173,740 Z"/>
  </g>
 </defs>
 <defs class="TextEmbeddedBitmaps"/>
 <g>
  <g id="id2" class="Master_Slide">
   <g id="bg-id2" class="Background"/>
   <g id="bo-id2" class="BackgroundObjects"/>
  </g>
 </g>
 <g class="SlideGroup">
  <g>
   <g id="container-id1">
    <g id="id1" class="Slide" clip-path="url(#presentation_clip_path)">
     <g class="Page">
      <g class="com.sun.star.drawing.CustomShape">
       <g id="id3">
        <rect class="BoundingBox" stroke="none" fill="none" x="199" y="199" width="6203" height="6203"/>
        <path fill="rgb(255,255,255)" stroke="none" d="M 3300,200 C 3871,200 4356,329 4850,615 5345,900 5700,1255 5985,1750 6271,2244 6401,2729 6401,3300 6401,3871 6271,4356 5985,4850 5700,5345 5345,5700 4850,5985 4356,6271 3871,6401 3300,6401 2729,6401 2244,6271 1750,5985 1255,5700 900,5345 615,4850 329,4356 200,3871 200,3300 199,2729 329,2244 615,1750 900,1255 1255,900 1750,615 2244,329 2729,200 3300,200 L 3300,200 Z"/>
       </g>
      </g>
      <g class="com.sun.star.drawing.CustomShape">
       <g id="id4">
        <rect class="BoundingBox" stroke="none" fill="none" x="1699" y="2599" width="3203" height="3203"/>
        <path fill="rgb(0,0,0)" stroke="none" d="M 3300,2600 C 3595,2600 3845,2667 4100,2814 4355,2961 4539,3145 4686,3400 4833,3655 4901,3905 4901,4200 4901,4495 4833,4745 4686,5000 4539,5255 4355,5439 4100,5586 3845,5733 3595,5801 3300,5801 3005,5801 2755,5733 2500,5586 2245,5439 2061,5255 1914,5000 1767,4745 1700,4495 1700,4200 1699,3905 1767,3655 1914,3400 2061,3145 2245,2961 2500,2814 2755,2667 3005,2600 3300,2600 L 3300,2600 Z"/>
       </g>
      </g>
      <g class="com.sun.star.drawing.CustomShape">
       <g id="id5">
        <rect class="BoundingBox" stroke="none" fill="none" x="1650" y="2100" width="3301" height="3101"/>
        <path fill="rgb(255,255,255)" stroke="none" d="M 3300,5200 L 1650,5200 1650,2100 4950,2100 4950,5200 3300,5200 Z"/>
       </g>
      </g>
      <g class="Group">
       <g class="com.sun.star.drawing.CustomShape">
        <g id="id6">
         <rect class="BoundingBox" stroke="none" fill="none" x="1579" y="2979" width="643" height="643"/>
         <path fill="rgb(255,0,0)" stroke="none" d="M 1900,2980 C 1959,2980 2009,2993 2060,3022 2111,3052 2148,3089 2178,3140 2207,3191 2221,3241 2221,3300 2221,3359 2207,3409 2178,3460 2148,3511 2111,3548 2060,3578 2009,3607 1959,3621 1900,3621 1841,3621 1791,3607 1740,3578 1689,3548 1652,3511 1622,3460 1593,3409 1580,3359 1580,3300 1580,3241 1593,3191 1622,3140 1652,3089 1689,3052 1740,3022 1791,2993 1841,2980 1900,2980 L 1900,2980 Z"/>
        </g>
       </g>
       <g class="com.sun.star.drawing.CustomShape">
        <g id="id7">
         <rect class="BoundingBox" stroke="none" fill="none" x="4379" y="2979" width="643" height="643"/>
         <path fill="rgb(255,0,0)" stroke="none" d="M 4700,2980 C 4759,2980 4809,2993 4860,3022 4911,3052 4948,3089 4978,3140 5007,3191 5021,3241 5021,3300 5021,3359 5007,3409 4978,3460 4948,3511 4911,3548 4860,3578 4809,3607 4759,3621 4700,3621 4641,3621 4591,3607 4540,3578 4489,3548 4452,3511 4422,3460 4393,3409 4380,3359 4380,3300 4380,3241 4393,3191 4422,3140 4452,3089 4489,3052 4540,3022 4591,2993 4641,2980 4700,2980 L 4700,2980 Z"/>
        </g>
       </g>
      </g>
      <g class="Group">
       <g class="com.sun.star.drawing.CustomShape">
        <g id="id8">
         <rect class="BoundingBox" stroke="none" fill="none" x="3099" y="1699" width="3203" height="3203"/>
         <path fill="rgb(0,0,0)" stroke="none" d="M 4700,1700 C 4995,1700 5245,1767 5500,1914 5755,2061 5939,2245 6086,2500 6233,2755 6301,3005 6301,3300 6301,3595 6233,3845 6086,4100 5939,4355 5755,4539 5500,4686 5245,4833 4995,4901 4700,4901 4405,4901 4155,4833 3900,4686 3645,4539 3461,4355 3314,4100 3167,3845 3100,3595 3100,3300 3099,3005 3167,2755 3314,2500 3461,2245 3645,2061 3900,1914 4155,1767 4405,1700 4700,1700 L 4700,1700 Z M 4699,2099 C 4920,2099 5108,2149 5299,2259 5491,2370 5628,2507 5739,2699 5849,2890 5900,3078 5900,3299 5900,3520 5849,3708 5739,3899 5628,4091 5491,4228 5299,4339 5108,4449 4920,4500 4699,4500 4478,4500 4290,4449 4099,4339 3907,4228 3770,4091 3659,3899 3549,3708 3498,3520 3498,3299 3498,3078 3549,2890 3659,2699 3770,2507 3907,2370 4099,2259 4290,2149 4478,2099 4699,2099 L 4699,2099 Z"/>
        </g>
       </g>
       <g class="com.sun.star.drawing.CustomShape">
        <g id="id9">
         <rect class="BoundingBox" stroke="none" fill="none" x="299" y="1699" width="3203" height="3203"/>
         <path fill="rgb(0,0,0)" stroke="none" d="M 1900,1700 C 2195,1700 2445,1767 2700,1914 2955,2061 3139,2245 3286,2500 3433,2755 3501,3005 3501,3300 3501,3595 3433,3845 3286,4100 3139,4355 2955,4539 2700,4686 2445,4833 2195,4901 1900,4901 1605,4901 1355,4833 1100,4686 845,4539 661,4355 514,4100 367,3845 300,3595 300,3300 299,3005 367,2755 514,2500 661,2245 845,2061 1100,1914 1355,1767 1605,1700 1900,1700 L 1900,1700 Z M 1899,2099 C 2120,2099 2308,2149 2499,2259 2691,2370 2828,2507 2939,2699 3049,2890 3100,3078 3100,3299 3100,3520 3049,3708 2939,3899 2828,4091 2691,4228 2499,4339 2308,4449 2120,4500 1899,4500 1678,4500 1490,4449 1299,4339 1107,4228 970,4091 859,3899 749,3708 699,3520 699,3299 698,3078 749,2890 859,2699 970,2507 1107,2370 1299,2259 1490,2149 1678,2099 1899,2099 L 1899,2099 Z"/>
        </g>
       </g>
       <g class="com.sun.star.drawing.CustomShape">
        <g id="id10">
         <rect class="BoundingBox" stroke="none" fill="none" x="99" y="99" width="6403" height="6403"/>
         <path fill="rgb(0,0,0)" stroke="none" d="M 3300,99 C 3889,99 4390,234 4900,528 5411,823 5777,1189 6072,1700 6366,2210 6501,2711 6501,3300 6501,3889 6366,4390 6072,4900 5777,5411 5411,5777 4900,6072 4390,6366 3889,6501 3300,6501 2711,6501 2210,6366 1700,6072 1189,5777 823,5411 528,4900 234,4390 99,3889 99,3300 99,2711 234,2210 528,1700 823,1189 1189,823 1700,528 2210,234 2711,99 3300,99 L 3300,99 Z M 3298,498 C 3813,498 4252,615 4698,873 5144,1131 5465,1452 5723,1898 5981,2344 6098,2783 6098,3298 6098,3813 5981,4252 5723,4698 5465,5144 5144,5465 4698,5723 4252,5981 3813,6098 3298,6098 2783,6098 2344,5981 1898,5723 1452,5465 1131,5144 873,4698 615,4252 498,3813 498,3298 498,2783 615,2344 873,1898 1131,1452 1452,1131 1898,873 2344,615 2783,498 3298,498 L 3298,498 Z"/>
        </g>
       </g>
       <g class="com.sun.star.drawing.CustomShape">
        <g id="id11">
         <rect class="BoundingBox" stroke="none" fill="none" x="1850" y="480" width="2901" height="421"/>
         <path fill="rgb(0,0,0)" stroke="none" d="M 3300,900 L 1850,900 1850,480 4750,480 4750,900 3300,900 Z"/>
        </g>
       </g>
       <g class="com.sun.star.drawing.CustomShape">
        <g id="id12">
         <rect class="BoundingBox" stroke="none" fill="none" x="1300" y="870" width="4001" height="421"/>
         <path fill="rgb(0,0,0)" stroke="none" d="M 3300,1290 L 1300,1290 1300,870 5300,870 5300,1290 3300,1290 Z"/>
        </g>
       </g>
       <g class="com.sun.star.drawing.CustomShape">
        <g id="id13">
         <rect class="BoundingBox" stroke="none" fill="none" x="1000" y="1250" width="4601" height="421"/>
         <path fill="rgb(0,0,0)" stroke="none" d="M 3300,1670 L 1000,1670 1000,1250 5600,1250 5600,1670 3300,1670 Z"/>
        </g>
       </g>
       <g class="com.sun.star.drawing.CustomShape">
        <g id="id14">
         <rect class="BoundingBox" stroke="none" fill="none" x="700" y="1650" width="5201" height="421"/>
         <path fill="rgb(0,0,0)" stroke="none" d="M 3300,2070 L 700,2070 700,1650 5900,1650 5900,2070 3300,2070 Z"/>
        </g>
       </g>
       <g class="com.sun.star.drawing.CustomShape">
        <g id="id15">
         <rect class="BoundingBox" stroke="none" fill="none" x="600" y="2000" width="401" height="401"/>
         <path fill="rgb(0,0,0)" stroke="none" d="M 800,2400 L 600,2400 600,2000 1000,2000 1000,2400 800,2400 Z"/>
        </g>
       </g>
       <g class="com.sun.star.drawing.CustomShape">
        <g id="id16">
         <rect class="BoundingBox" stroke="none" fill="none" x="5600" y="2000" width="401" height="401"/>
         <path fill="rgb(0,0,0)" stroke="none" d="M 5800,2400 L 5600,2400 5600,2000 6000,2000 6000,2400 5800,2400 Z"/>
        </g>
       </g>
       <g class="com.sun.star.drawing.CustomShape">
        <g id="id17">
         <rect class="BoundingBox" stroke="none" fill="none" x="2900" y="2000" width="801" height="601"/>
         <path fill="rgb(0,0,0)" stroke="none" d="M 3300,2600 L 2900,2600 2900,2000 3700,2000 3700,2600 3300,2600 Z"/>
        </g>
       </g>
      </g>
     </g>
    </g>
   </g>
  </g>
 </g>
</svg>